<?xml version="1.0" encoding="utf-8"?>
<!DOCTYPE svg PUBLIC "-//W3C//DTD SVG 20010904//EN" "http://www.w3.org/TR/2001/REC-SVG-20010904/DTD/svg10.dtd">
<svg xmlns="http://www.w3.org/2000/svg" xml:space="preserve" xmlns:xlink="http://www.w3.org/1999/xlink" width="528" height="528" viewBox="0 0 528 528">
<defs>
<mask id="qrmask"><g fill="#ffffff">
<g transform="translate(208,32) scale(2.6666666666667)"><rect width="6" height="6"/></g>
<g transform="translate(224,32) scale(2.6666666666667)"><rect width="6" height="6"/></g>
<g transform="translate(272,32) scale(2.6666666666667)"><rect width="6" height="6"/></g>
<g transform="translate(288,32) scale(2.6666666666667)"><rect width="6" height="6"/></g>
<g transform="translate(304,32) scale(2.6666666666667)"><rect width="6" height="6"/></g>
<g transform="translate(320,32) scale(2.6666666666667)"><rect width="6" height="6"/></g>
<g transform="translate(336,32) scale(2.6666666666667)"><rect width="6" height="6"/></g>
<g transform="translate(352,32) scale(2.6666666666667)"><rect width="6" height="6"/></g>
<g transform="translate(176,48) scale(2.6666666666667)"><rect width="6" height="6"/></g>
<g transform="translate(192,48) scale(2.6666666666667)"><rect width="6" height="6"/></g>
<g transform="translate(208,48) scale(2.6666666666667)"><rect width="6" height="6"/></g>
<g transform="translate(224,48) scale(2.6666666666667)"><rect width="6" height="6"/></g>
<g transform="translate(272,48) scale(2.6666666666667)"><rect width="6" height="6"/></g>
<g transform="translate(288,48) scale(2.6666666666667)"><rect width="6" height="6"/></g>
<g transform="translate(304,48) scale(2.6666666666667)"><rect width="6" height="6"/></g>
<g transform="translate(352,48) scale(2.6666666666667)"><rect width="6" height="6"/></g>
<g transform="translate(160,64) scale(2.6666666666667)"><rect width="6" height="6"/></g>
<g transform="translate(224,64) scale(2.6666666666667)"><rect width="6" height="6"/></g>
<g transform="translate(256,64) scale(2.6666666666667)"><rect width="6" height="6"/></g>
<g transform="translate(288,64) scale(2.6666666666667)"><rect width="6" height="6"/></g>
<g transform="translate(336,64) scale(2.6666666666667)"><rect width="6" height="6"/></g>
<g transform="translate(160,80) scale(2.6666666666667)"><rect width="6" height="6"/></g>
<g transform="translate(192,80) scale(2.6666666666667)"><rect width="6" height="6"/></g>
<g transform="translate(224,80) scale(2.6666666666667)"><rect width="6" height="6"/></g>
<g transform="translate(256,80) scale(2.6666666666667)"><rect width="6" height="6"/></g>
<g transform="translate(272,80) scale(2.6666666666667)"><rect width="6" height="6"/></g>
<g transform="translate(288,80) scale(2.6666666666667)"><rect width="6" height="6"/></g>
<g transform="translate(304,80) scale(2.6666666666667)"><rect width="6" height="6"/></g>
<g transform="translate(160,96) scale(2.6666666666667)"><rect width="6" height="6"/></g>
<g transform="translate(208,96) scale(2.6666666666667)"><rect width="6" height="6"/></g>
<g transform="translate(240,96) scale(2.6666666666667)"><rect width="6" height="6"/></g>
<g transform="translate(288,96) scale(2.6666666666667)"><rect width="6" height="6"/></g>
<g transform="translate(304,96) scale(2.6666666666667)"><rect width="6" height="6"/></g>
<g transform="translate(320,96) scale(2.6666666666667)"><rect width="6" height="6"/></g>
<g transform="translate(336,96) scale(2.6666666666667)"><rect width="6" height="6"/></g>
<g transform="translate(352,96) scale(2.6666666666667)"><rect width="6" height="6"/></g>
<g transform="translate(160,112) scale(2.6666666666667)"><rect width="6" height="6"/></g>
<g transform="translate(176,112) scale(2.6666666666667)"><rect width="6" height="6"/></g>
<g transform="translate(272,112) scale(2.6666666666667)"><rect width="6" height="6"/></g>
<g transform="translate(160,128) scale(2.6666666666667)"><rect width="6" height="6"/></g>
<g transform="translate(192,128) scale(2.6666666666667)"><rect width="6" height="6"/></g>
<g transform="translate(224,128) scale(2.6666666666667)"><rect width="6" height="6"/></g>
<g transform="translate(256,128) scale(2.6666666666667)"><rect width="6" height="6"/></g>
<g transform="translate(288,128) scale(2.6666666666667)"><rect width="6" height="6"/></g>
<g transform="translate(320,128) scale(2.6666666666667)"><rect width="6" height="6"/></g>
<g transform="translate(352,128) scale(2.6666666666667)"><rect width="6" height="6"/></g>
<g transform="translate(160,144) scale(2.6666666666667)"><rect width="6" height="6"/></g>
<g transform="translate(192,144) scale(2.6666666666667)"><rect width="6" height="6"/></g>
<g transform="translate(208,144) scale(2.6666666666667)"><rect width="6" height="6"/></g>
<g transform="translate(224,144) scale(2.6666666666667)"><rect width="6" height="6"/></g>
<g transform="translate(272,144) scale(2.6666666666667)"><rect width="6" height="6"/></g>
<g transform="translate(288,144) scale(2.6666666666667)"><rect width="6" height="6"/></g>
<g transform="translate(336,144) scale(2.6666666666667)"><rect width="6" height="6"/></g>
<g transform="translate(352,144) scale(2.6666666666667)"><rect width="6" height="6"/></g>
<g transform="translate(32,160) scale(2.6666666666667)"><rect width="6" height="6"/></g>
<g transform="translate(64,160) scale(2.6666666666667)"><rect width="6" height="6"/></g>
<g transform="translate(80,160) scale(2.6666666666667)"><rect width="6" height="6"/></g>
<g transform="translate(96,160) scale(2.6666666666667)"><rect width="6" height="6"/></g>
<g transform="translate(112,160) scale(2.6666666666667)"><rect width="6" height="6"/></g>
<g transform="translate(128,160) scale(2.6666666666667)"><rect width="6" height="6"/></g>
<g transform="translate(192,160) scale(2.6666666666667)"><rect width="6" height="6"/></g>
<g transform="translate(208,160) scale(2.6666666666667)"><rect width="6" height="6"/></g>
<g transform="translate(240,160) scale(2.6666666666667)"><rect width="6" height="6"/></g>
<g transform="translate(256,160) scale(2.6666666666667)"><rect width="6" height="6"/></g>
<g transform="translate(272,160) scale(2.6666666666667)"><rect width="6" height="6"/></g>
<g transform="translate(288,160) scale(2.6666666666667)"><rect width="6" height="6"/></g>
<g transform="translate(304,160) scale(2.6666666666667)"><rect width="6" height="6"/></g>
<g transform="translate(320,160) scale(2.6666666666667)"><rect width="6" height="6"/></g>
<g transform="translate(336,160) scale(2.6666666666667)"><rect width="6" height="6"/></g>
<g transform="translate(384,160) scale(2.6666666666667)"><rect width="6" height="6"/></g>
<g transform="translate(400,160) scale(2.6666666666667)"><rect width="6" height="6"/></g>
<g transform="translate(416,160) scale(2.6666666666667)"><rect width="6" height="6"/></g>
<g transform="translate(432,160) scale(2.6666666666667)"><rect width="6" height="6"/></g>
<g transform="translate(448,160) scale(2.6666666666667)"><rect width="6" height="6"/></g>
<g transform="translate(80,176) scale(2.6666666666667)"><rect width="6" height="6"/></g>
<g transform="translate(96,176) scale(2.6666666666667)"><rect width="6" height="6"/></g>
<g transform="translate(112,176) scale(2.6666666666667)"><rect width="6" height="6"/></g>
<g transform="translate(160,176) scale(2.6666666666667)"><rect width="6" height="6"/></g>
<g transform="translate(224,176) scale(2.6666666666667)"><rect width="6" height="6"/></g>
<g transform="translate(272,176) scale(2.6666666666667)"><rect width="6" height="6"/></g>
<g transform="translate(288,176) scale(2.6666666666667)"><rect width="6" height="6"/></g>
<g transform="translate(304,176) scale(2.6666666666667)"><rect width="6" height="6"/></g>
<g transform="translate(320,176) scale(2.6666666666667)"><rect width="6" height="6"/></g>
<g transform="translate(336,176) scale(2.6666666666667)"><rect width="6" height="6"/></g>
<g transform="translate(368,176) scale(2.6666666666667)"><rect width="6" height="6"/></g>
<g transform="translate(384,176) scale(2.6666666666667)"><rect width="6" height="6"/></g>
<g transform="translate(400,176) scale(2.6666666666667)"><rect width="6" height="6"/></g>
<g transform="translate(416,176) scale(2.6666666666667)"><rect width="6" height="6"/></g>
<g transform="translate(480,176) scale(2.6666666666667)"><rect width="6" height="6"/></g>
<g transform="translate(48,192) scale(2.6666666666667)"><rect width="6" height="6"/></g>
<g transform="translate(80,192) scale(2.6666666666667)"><rect width="6" height="6"/></g>
<g transform="translate(96,192) scale(2.6666666666667)"><rect width="6" height="6"/></g>
<g transform="translate(128,192) scale(2.6666666666667)"><rect width="6" height="6"/></g>
<g transform="translate(176,192) scale(2.6666666666667)"><rect width="6" height="6"/></g>
<g transform="translate(224,192) scale(2.6666666666667)"><rect width="6" height="6"/></g>
<g transform="translate(240,192) scale(2.6666666666667)"><rect width="6" height="6"/></g>
<g transform="translate(256,192) scale(2.6666666666667)"><rect width="6" height="6"/></g>
<g transform="translate(272,192) scale(2.6666666666667)"><rect width="6" height="6"/></g>
<g transform="translate(304,192) scale(2.6666666666667)"><rect width="6" height="6"/></g>
<g transform="translate(352,192) scale(2.6666666666667)"><rect width="6" height="6"/></g>
<g transform="translate(400,192) scale(2.6666666666667)"><rect width="6" height="6"/></g>
<g transform="translate(416,192) scale(2.6666666666667)"><rect width="6" height="6"/></g>
<g transform="translate(32,208) scale(2.6666666666667)"><rect width="6" height="6"/></g>
<g transform="translate(80,208) scale(2.6666666666667)"><rect width="6" height="6"/></g>
<g transform="translate(96,208) scale(2.6666666666667)"><rect width="6" height="6"/></g>
<g transform="translate(176,208) scale(2.6666666666667)"><rect width="6" height="6"/></g>
<g transform="translate(192,208) scale(2.6666666666667)"><rect width="6" height="6"/></g>
<g transform="translate(368,208) scale(2.6666666666667)"><rect width="6" height="6"/></g>
<g transform="translate(400,208) scale(2.6666666666667)"><rect width="6" height="6"/></g>
<g transform="translate(416,208) scale(2.6666666666667)"><rect width="6" height="6"/></g>
<g transform="translate(432,208) scale(2.6666666666667)"><rect width="6" height="6"/></g>
<g transform="translate(464,208) scale(2.6666666666667)"><rect width="6" height="6"/></g>
<g transform="translate(32,224) scale(2.6666666666667)"><rect width="6" height="6"/></g>
<g transform="translate(80,224) scale(2.6666666666667)"><rect width="6" height="6"/></g>
<g transform="translate(128,224) scale(2.6666666666667)"><rect width="6" height="6"/></g>
<g transform="translate(176,224) scale(2.6666666666667)"><rect width="6" height="6"/></g>
<g transform="translate(256,224) scale(2.6666666666667)"><rect width="6" height="6"/></g>
<g transform="translate(272,224) scale(2.6666666666667)"><rect width="6" height="6"/></g>
<g transform="translate(288,224) scale(2.6666666666667)"><rect width="6" height="6"/></g>
<g transform="translate(304,224) scale(2.6666666666667)"><rect width="6" height="6"/></g>
<g transform="translate(368,224) scale(2.6666666666667)"><rect width="6" height="6"/></g>
<g transform="translate(400,224) scale(2.6666666666667)"><rect width="6" height="6"/></g>
<g transform="translate(432,224) scale(2.6666666666667)"><rect width="6" height="6"/></g>
<g transform="translate(448,224) scale(2.6666666666667)"><rect width="6" height="6"/></g>
<g transform="translate(32,240) scale(2.6666666666667)"><rect width="6" height="6"/></g>
<g transform="translate(48,240) scale(2.6666666666667)"><rect width="6" height="6"/></g>
<g transform="translate(64,240) scale(2.6666666666667)"><rect width="6" height="6"/></g>
<g transform="translate(80,240) scale(2.6666666666667)"><rect width="6" height="6"/></g>
<g transform="translate(176,240) scale(2.6666666666667)"><rect width="6" height="6"/></g>
<g transform="translate(192,240) scale(2.6666666666667)"><rect width="6" height="6"/></g>
<g transform="translate(272,240) scale(2.6666666666667)"><rect width="6" height="6"/></g>
<g transform="translate(288,240) scale(2.6666666666667)"><rect width="6" height="6"/></g>
<g transform="translate(336,240) scale(2.6666666666667)"><rect width="6" height="6"/></g>
<g transform="translate(352,240) scale(2.6666666666667)"><rect width="6" height="6"/></g>
<g transform="translate(368,240) scale(2.6666666666667)"><rect width="6" height="6"/></g>
<g transform="translate(384,240) scale(2.6666666666667)"><rect width="6" height="6"/></g>
<g transform="translate(400,240) scale(2.6666666666667)"><rect width="6" height="6"/></g>
<g transform="translate(416,240) scale(2.6666666666667)"><rect width="6" height="6"/></g>
<g transform="translate(480,240) scale(2.6666666666667)"><rect width="6" height="6"/></g>
<g transform="translate(64,256) scale(2.6666666666667)"><rect width="6" height="6"/></g>
<g transform="translate(112,256) scale(2.6666666666667)"><rect width="6" height="6"/></g>
<g transform="translate(128,256) scale(2.6666666666667)"><rect width="6" height="6"/></g>
<g transform="translate(144,256) scale(2.6666666666667)"><rect width="6" height="6"/></g>
<g transform="translate(240,256) scale(2.6666666666667)"><rect width="6" height="6"/></g>
<g transform="translate(272,256) scale(2.6666666666667)"><rect width="6" height="6"/></g>
<g transform="translate(288,256) scale(2.6666666666667)"><rect width="6" height="6"/></g>
<g transform="translate(304,256) scale(2.6666666666667)"><rect width="6" height="6"/></g>
<g transform="translate(320,256) scale(2.6666666666667)"><rect width="6" height="6"/></g>
<g transform="translate(352,256) scale(2.6666666666667)"><rect width="6" height="6"/></g>
<g transform="translate(384,256) scale(2.6666666666667)"><rect width="6" height="6"/></g>
<g transform="translate(400,256) scale(2.6666666666667)"><rect width="6" height="6"/></g>
<g transform="translate(432,256) scale(2.6666666666667)"><rect width="6" height="6"/></g>
<g transform="translate(448,256) scale(2.6666666666667)"><rect width="6" height="6"/></g>
<g transform="translate(32,272) scale(2.6666666666667)"><rect width="6" height="6"/></g>
<g transform="translate(112,272) scale(2.6666666666667)"><rect width="6" height="6"/></g>
<g transform="translate(160,272) scale(2.6666666666667)"><rect width="6" height="6"/></g>
<g transform="translate(256,272) scale(2.6666666666667)"><rect width="6" height="6"/></g>
<g transform="translate(272,272) scale(2.6666666666667)"><rect width="6" height="6"/></g>
<g transform="translate(288,272) scale(2.6666666666667)"><rect width="6" height="6"/></g>
<g transform="translate(368,272) scale(2.6666666666667)"><rect width="6" height="6"/></g>
<g transform="translate(384,272) scale(2.6666666666667)"><rect width="6" height="6"/></g>
<g transform="translate(400,272) scale(2.6666666666667)"><rect width="6" height="6"/></g>
<g transform="translate(464,272) scale(2.6666666666667)"><rect width="6" height="6"/></g>
<g transform="translate(32,288) scale(2.6666666666667)"><rect width="6" height="6"/></g>
<g transform="translate(48,288) scale(2.6666666666667)"><rect width="6" height="6"/></g>
<g transform="translate(80,288) scale(2.6666666666667)"><rect width="6" height="6"/></g>
<g transform="translate(112,288) scale(2.6666666666667)"><rect width="6" height="6"/></g>
<g transform="translate(128,288) scale(2.6666666666667)"><rect width="6" height="6"/></g>
<g transform="translate(176,288) scale(2.6666666666667)"><rect width="6" height="6"/></g>
<g transform="translate(192,288) scale(2.6666666666667)"><rect width="6" height="6"/></g>
<g transform="translate(208,288) scale(2.6666666666667)"><rect width="6" height="6"/></g>
<g transform="translate(224,288) scale(2.6666666666667)"><rect width="6" height="6"/></g>
<g transform="translate(256,288) scale(2.6666666666667)"><rect width="6" height="6"/></g>
<g transform="translate(304,288) scale(2.6666666666667)"><rect width="6" height="6"/></g>
<g transform="translate(320,288) scale(2.6666666666667)"><rect width="6" height="6"/></g>
<g transform="translate(336,288) scale(2.6666666666667)"><rect width="6" height="6"/></g>
<g transform="translate(432,288) scale(2.6666666666667)"><rect width="6" height="6"/></g>
<g transform="translate(448,288) scale(2.6666666666667)"><rect width="6" height="6"/></g>
<g transform="translate(32,304) scale(2.6666666666667)"><rect width="6" height="6"/></g>
<g transform="translate(64,304) scale(2.6666666666667)"><rect width="6" height="6"/></g>
<g transform="translate(80,304) scale(2.6666666666667)"><rect width="6" height="6"/></g>
<g transform="translate(112,304) scale(2.6666666666667)"><rect width="6" height="6"/></g>
<g transform="translate(144,304) scale(2.6666666666667)"><rect width="6" height="6"/></g>
<g transform="translate(160,304) scale(2.6666666666667)"><rect width="6" height="6"/></g>
<g transform="translate(192,304) scale(2.6666666666667)"><rect width="6" height="6"/></g>
<g transform="translate(208,304) scale(2.6666666666667)"><rect width="6" height="6"/></g>
<g transform="translate(256,304) scale(2.6666666666667)"><rect width="6" height="6"/></g>
<g transform="translate(272,304) scale(2.6666666666667)"><rect width="6" height="6"/></g>
<g transform="translate(288,304) scale(2.6666666666667)"><rect width="6" height="6"/></g>
<g transform="translate(304,304) scale(2.6666666666667)"><rect width="6" height="6"/></g>
<g transform="translate(320,304) scale(2.6666666666667)"><rect width="6" height="6"/></g>
<g transform="translate(336,304) scale(2.6666666666667)"><rect width="6" height="6"/></g>
<g transform="translate(352,304) scale(2.6666666666667)"><rect width="6" height="6"/></g>
<g transform="translate(368,304) scale(2.6666666666667)"><rect width="6" height="6"/></g>
<g transform="translate(384,304) scale(2.6666666666667)"><rect width="6" height="6"/></g>
<g transform="translate(400,304) scale(2.6666666666667)"><rect width="6" height="6"/></g>
<g transform="translate(416,304) scale(2.6666666666667)"><rect width="6" height="6"/></g>
<g transform="translate(448,304) scale(2.6666666666667)"><rect width="6" height="6"/></g>
<g transform="translate(480,304) scale(2.6666666666667)"><rect width="6" height="6"/></g>
<g transform="translate(32,320) scale(2.6666666666667)"><rect width="6" height="6"/></g>
<g transform="translate(112,320) scale(2.6666666666667)"><rect width="6" height="6"/></g>
<g transform="translate(128,320) scale(2.6666666666667)"><rect width="6" height="6"/></g>
<g transform="translate(144,320) scale(2.6666666666667)"><rect width="6" height="6"/></g>
<g transform="translate(160,320) scale(2.6666666666667)"><rect width="6" height="6"/></g>
<g transform="translate(176,320) scale(2.6666666666667)"><rect width="6" height="6"/></g>
<g transform="translate(192,320) scale(2.6666666666667)"><rect width="6" height="6"/></g>
<g transform="translate(240,320) scale(2.6666666666667)"><rect width="6" height="6"/></g>
<g transform="translate(272,320) scale(2.6666666666667)"><rect width="6" height="6"/></g>
<g transform="translate(304,320) scale(2.6666666666667)"><rect width="6" height="6"/></g>
<g transform="translate(368,320) scale(2.6666666666667)"><rect width="6" height="6"/></g>
<g transform="translate(384,320) scale(2.6666666666667)"><rect width="6" height="6"/></g>
<g transform="translate(416,320) scale(2.6666666666667)"><rect width="6" height="6"/></g>
<g transform="translate(448,320) scale(2.6666666666667)"><rect width="6" height="6"/></g>
<g transform="translate(32,336) scale(2.6666666666667)"><rect width="6" height="6"/></g>
<g transform="translate(80,336) scale(2.6666666666667)"><rect width="6" height="6"/></g>
<g transform="translate(112,336) scale(2.6666666666667)"><rect width="6" height="6"/></g>
<g transform="translate(144,336) scale(2.6666666666667)"><rect width="6" height="6"/></g>
<g transform="translate(208,336) scale(2.6666666666667)"><rect width="6" height="6"/></g>
<g transform="translate(224,336) scale(2.6666666666667)"><rect width="6" height="6"/></g>
<g transform="translate(256,336) scale(2.6666666666667)"><rect width="6" height="6"/></g>
<g transform="translate(272,336) scale(2.6666666666667)"><rect width="6" height="6"/></g>
<g transform="translate(352,336) scale(2.6666666666667)"><rect width="6" height="6"/></g>
<g transform="translate(400,336) scale(2.6666666666667)"><rect width="6" height="6"/></g>
<g transform="translate(464,336) scale(2.6666666666667)"><rect width="6" height="6"/></g>
<g transform="translate(32,352) scale(2.6666666666667)"><rect width="6" height="6"/></g>
<g transform="translate(80,352) scale(2.6666666666667)"><rect width="6" height="6"/></g>
<g transform="translate(128,352) scale(2.6666666666667)"><rect width="6" height="6"/></g>
<g transform="translate(160,352) scale(2.6666666666667)"><rect width="6" height="6"/></g>
<g transform="translate(176,352) scale(2.6666666666667)"><rect width="6" height="6"/></g>
<g transform="translate(208,352) scale(2.6666666666667)"><rect width="6" height="6"/></g>
<g transform="translate(240,352) scale(2.6666666666667)"><rect width="6" height="6"/></g>
<g transform="translate(336,352) scale(2.6666666666667)"><rect width="6" height="6"/></g>
<g transform="translate(352,352) scale(2.6666666666667)"><rect width="6" height="6"/></g>
<g transform="translate(368,352) scale(2.6666666666667)"><rect width="6" height="6"/></g>
<g transform="translate(384,352) scale(2.6666666666667)"><rect width="6" height="6"/></g>
<g transform="translate(400,352) scale(2.6666666666667)"><rect width="6" height="6"/></g>
<g transform="translate(416,352) scale(2.6666666666667)"><rect width="6" height="6"/></g>
<g transform="translate(448,352) scale(2.6666666666667)"><rect width="6" height="6"/></g>
<g transform="translate(464,352) scale(2.6666666666667)"><rect width="6" height="6"/></g>
<g transform="translate(480,352) scale(2.6666666666667)"><rect width="6" height="6"/></g>
<g transform="translate(160,368) scale(2.6666666666667)"><rect width="6" height="6"/></g>
<g transform="translate(176,368) scale(2.6666666666667)"><rect width="6" height="6"/></g>
<g transform="translate(192,368) scale(2.6666666666667)"><rect width="6" height="6"/></g>
<g transform="translate(208,368) scale(2.6666666666667)"><rect width="6" height="6"/></g>
<g transform="translate(224,368) scale(2.6666666666667)"><rect width="6" height="6"/></g>
<g transform="translate(256,368) scale(2.6666666666667)"><rect width="6" height="6"/></g>
<g transform="translate(272,368) scale(2.6666666666667)"><rect width="6" height="6"/></g>
<g transform="translate(288,368) scale(2.6666666666667)"><rect width="6" height="6"/></g>
<g transform="translate(320,368) scale(2.6666666666667)"><rect width="6" height="6"/></g>
<g transform="translate(352,368) scale(2.6666666666667)"><rect width="6" height="6"/></g>
<g transform="translate(416,368) scale(2.6666666666667)"><rect width="6" height="6"/></g>
<g transform="translate(432,368) scale(2.6666666666667)"><rect width="6" height="6"/></g>
<g transform="translate(448,368) scale(2.6666666666667)"><rect width="6" height="6"/></g>
<g transform="translate(464,368) scale(2.6666666666667)"><rect width="6" height="6"/></g>
<g transform="translate(480,368) scale(2.6666666666667)"><rect width="6" height="6"/></g>
<g transform="translate(176,384) scale(2.6666666666667)"><rect width="6" height="6"/></g>
<g transform="translate(208,384) scale(2.6666666666667)"><rect width="6" height="6"/></g>
<g transform="translate(240,384) scale(2.6666666666667)"><rect width="6" height="6"/></g>
<g transform="translate(256,384) scale(2.6666666666667)"><rect width="6" height="6"/></g>
<g transform="translate(272,384) scale(2.6666666666667)"><rect width="6" height="6"/></g>
<g transform="translate(336,384) scale(2.6666666666667)"><rect width="6" height="6"/></g>
<g transform="translate(352,384) scale(2.6666666666667)"><rect width="6" height="6"/></g>
<g transform="translate(384,384) scale(2.6666666666667)"><rect width="6" height="6"/></g>
<g transform="translate(416,384) scale(2.6666666666667)"><rect width="6" height="6"/></g>
<g transform="translate(432,384) scale(2.6666666666667)"><rect width="6" height="6"/></g>
<g transform="translate(448,384) scale(2.6666666666667)"><rect width="6" height="6"/></g>
<g transform="translate(160,400) scale(2.6666666666667)"><rect width="6" height="6"/></g>
<g transform="translate(176,400) scale(2.6666666666667)"><rect width="6" height="6"/></g>
<g transform="translate(192,400) scale(2.6666666666667)"><rect width="6" height="6"/></g>
<g transform="translate(208,400) scale(2.6666666666667)"><rect width="6" height="6"/></g>
<g transform="translate(256,400) scale(2.6666666666667)"><rect width="6" height="6"/></g>
<g transform="translate(272,400) scale(2.6666666666667)"><rect width="6" height="6"/></g>
<g transform="translate(336,400) scale(2.6666666666667)"><rect width="6" height="6"/></g>
<g transform="translate(352,400) scale(2.6666666666667)"><rect width="6" height="6"/></g>
<g transform="translate(416,400) scale(2.6666666666667)"><rect width="6" height="6"/></g>
<g transform="translate(464,400) scale(2.6666666666667)"><rect width="6" height="6"/></g>
<g transform="translate(480,400) scale(2.6666666666667)"><rect width="6" height="6"/></g>
<g transform="translate(160,416) scale(2.6666666666667)"><rect width="6" height="6"/></g>
<g transform="translate(192,416) scale(2.6666666666667)"><rect width="6" height="6"/></g>
<g transform="translate(208,416) scale(2.6666666666667)"><rect width="6" height="6"/></g>
<g transform="translate(224,416) scale(2.6666666666667)"><rect width="6" height="6"/></g>
<g transform="translate(304,416) scale(2.6666666666667)"><rect width="6" height="6"/></g>
<g transform="translate(320,416) scale(2.6666666666667)"><rect width="6" height="6"/></g>
<g transform="translate(352,416) scale(2.6666666666667)"><rect width="6" height="6"/></g>
<g transform="translate(368,416) scale(2.6666666666667)"><rect width="6" height="6"/></g>
<g transform="translate(384,416) scale(2.6666666666667)"><rect width="6" height="6"/></g>
<g transform="translate(400,416) scale(2.6666666666667)"><rect width="6" height="6"/></g>
<g transform="translate(416,416) scale(2.6666666666667)"><rect width="6" height="6"/></g>
<g transform="translate(448,416) scale(2.6666666666667)"><rect width="6" height="6"/></g>
<g transform="translate(464,416) scale(2.6666666666667)"><rect width="6" height="6"/></g>
<g transform="translate(480,416) scale(2.6666666666667)"><rect width="6" height="6"/></g>
<g transform="translate(160,432) scale(2.6666666666667)"><rect width="6" height="6"/></g>
<g transform="translate(192,432) scale(2.6666666666667)"><rect width="6" height="6"/></g>
<g transform="translate(272,432) scale(2.6666666666667)"><rect width="6" height="6"/></g>
<g transform="translate(288,432) scale(2.6666666666667)"><rect width="6" height="6"/></g>
<g transform="translate(336,432) scale(2.6666666666667)"><rect width="6" height="6"/></g>
<g transform="translate(432,432) scale(2.6666666666667)"><rect width="6" height="6"/></g>
<g transform="translate(448,432) scale(2.6666666666667)"><rect width="6" height="6"/></g>
<g transform="translate(464,432) scale(2.6666666666667)"><rect width="6" height="6"/></g>
<g transform="translate(480,432) scale(2.6666666666667)"><rect width="6" height="6"/></g>
<g transform="translate(160,448) scale(2.6666666666667)"><rect width="6" height="6"/></g>
<g transform="translate(176,448) scale(2.6666666666667)"><rect width="6" height="6"/></g>
<g transform="translate(192,448) scale(2.6666666666667)"><rect width="6" height="6"/></g>
<g transform="translate(208,448) scale(2.6666666666667)"><rect width="6" height="6"/></g>
<g transform="translate(224,448) scale(2.6666666666667)"><rect width="6" height="6"/></g>
<g transform="translate(240,448) scale(2.6666666666667)"><rect width="6" height="6"/></g>
<g transform="translate(256,448) scale(2.6666666666667)"><rect width="6" height="6"/></g>
<g transform="translate(272,448) scale(2.6666666666667)"><rect width="6" height="6"/></g>
<g transform="translate(288,448) scale(2.6666666666667)"><rect width="6" height="6"/></g>
<g transform="translate(304,448) scale(2.6666666666667)"><rect width="6" height="6"/></g>
<g transform="translate(320,448) scale(2.6666666666667)"><rect width="6" height="6"/></g>
<g transform="translate(368,448) scale(2.6666666666667)"><rect width="6" height="6"/></g>
<g transform="translate(384,448) scale(2.6666666666667)"><rect width="6" height="6"/></g>
<g transform="translate(400,448) scale(2.6666666666667)"><rect width="6" height="6"/></g>
<g transform="translate(416,448) scale(2.6666666666667)"><rect width="6" height="6"/></g>
<g transform="translate(432,448) scale(2.6666666666667)"><rect width="6" height="6"/></g>
<g transform="translate(448,448) scale(2.6666666666667)"><rect width="6" height="6"/></g>
<g transform="translate(464,448) scale(2.6666666666667)"><rect width="6" height="6"/></g>
<g transform="translate(256,464) scale(2.6666666666667)"><rect width="6" height="6"/></g>
<g transform="translate(320,464) scale(2.6666666666667)"><rect width="6" height="6"/></g>
<g transform="translate(352,464) scale(2.6666666666667)"><rect width="6" height="6"/></g>
<g transform="translate(400,464) scale(2.6666666666667)"><rect width="6" height="6"/></g>
<g transform="translate(432,464) scale(2.6666666666667)"><rect width="6" height="6"/></g>
<g transform="translate(464,464) scale(2.6666666666667)"><rect width="6" height="6"/></g>
<g transform="translate(160,480) scale(2.6666666666667)"><rect width="6" height="6"/></g>
<g transform="translate(208,480) scale(2.6666666666667)"><rect width="6" height="6"/></g>
<g transform="translate(256,480) scale(2.6666666666667)"><rect width="6" height="6"/></g>
<g transform="translate(272,480) scale(2.6666666666667)"><rect width="6" height="6"/></g>
<g transform="translate(288,480) scale(2.6666666666667)"><rect width="6" height="6"/></g>
<g transform="translate(304,480) scale(2.6666666666667)"><rect width="6" height="6"/></g>
<g transform="translate(336,480) scale(2.6666666666667)"><rect width="6" height="6"/></g>
<g transform="translate(384,480) scale(2.6666666666667)"><rect width="6" height="6"/></g>
<g transform="translate(416,480) scale(2.6666666666667)"><rect width="6" height="6"/></g>
<g transform="translate(448,480) scale(2.6666666666667)"><rect width="6" height="6"/></g>
<g transform="translate(32,32)"><g transform="scale(8)"><path d="M0,0v14h14V0H0z M12,12H2V2h10V12z"/></g></g>
<g transform="translate(384,32)"><g transform="scale(8)"><path d="M0,0v14h14V0H0z M12,12H2V2h10V12z"/></g></g>
<g transform="translate(32,384)"><g transform="scale(8)"><path d="M0,0v14h14V0H0z M12,12H2V2h10V12z"/></g></g>
<g transform="translate(64,64)"><g transform="scale(8)"><rect width="6" height="6"/></g></g>
<g transform="translate(416,64)"><g transform="scale(8)"><rect width="6" height="6"/></g></g>
<g transform="translate(64,416)"><g transform="scale(8)"><rect width="6" height="6"/></g></g>
</g></mask></defs>
<rect width="528" height="528" fill="#ffffff" x="0" y="0" />
<rect x="0" y="0" width="528" height="528" mask="url(#qrmask)" fill="#000000" />
</svg>